<svg width="223" height="157" viewBox="0 0 223 157" fill="none" xmlns="http://www.w3.org/2000/svg">
<g filter="url(#filter0_d_1_232)">
<g clip-path="url(#clip0_1_232)">
<rect width="164.942" height="89.7815" rx="6.23592" transform="matrix(0.993173 -0.11665 0.116685 0.993169 24 38.2405)" fill="#F1F7FF" fill-opacity="0.9" shape-rendering="crispEdges"/>
<g filter="url(#filter1_d_1_232)">
<g clip-path="url(#clip1_1_232)">
<rect width="152.78" height="77.3254" rx="3.74155" transform="matrix(0.993173 -0.11665 0.116685 0.993169 30.9208 43.7063)" fill="white"/>
<path d="M44.8872 56.135L44.9377 56.5646L42.8276 56.8125L42.7771 56.3828L44.8872 56.135ZM42.4662 52.8152L42.9344 56.7999L42.4062 56.862L41.938 52.8772L42.4662 52.8152ZM44.3917 54.3259L44.4421 54.7556L42.6112 54.9706L42.5607 54.5409L44.3917 54.3259ZM44.4422 52.5831L44.493 53.0155L42.4103 53.2601L42.3595 52.8277L44.4422 52.5831ZM46.617 56.0012C46.7374 55.987 46.8458 55.9493 46.9422 55.888C47.0386 55.8268 47.1146 55.7494 47.1702 55.6559C47.2256 55.5607 47.2513 55.4568 47.2474 55.3445L47.729 55.2879C47.7405 55.4641 47.7004 55.6344 47.6087 55.7987C47.5186 55.9609 47.3915 56.0989 47.2273 56.2125C47.0628 56.3243 46.8757 56.3925 46.6659 56.4171C46.4433 56.4433 46.2444 56.4269 46.0691 56.3679C45.8957 56.3088 45.7462 56.2172 45.6207 56.0932C45.4969 55.969 45.3973 55.8216 45.3218 55.6511C45.2479 55.4785 45.1992 55.2928 45.1758 55.0939L45.1623 54.979C45.139 54.7801 45.1434 54.589 45.1755 54.4059C45.2092 54.2206 45.2719 54.0533 45.3634 53.9038C45.4568 53.7541 45.581 53.6304 45.736 53.5326C45.8928 53.4347 46.0825 53.3726 46.3051 53.3465C46.5368 53.3193 46.7449 53.3429 46.9294 53.4174C47.1137 53.4901 47.2646 53.6019 47.3822 53.7527C47.5014 53.9015 47.5776 54.0775 47.6107 54.2808L47.129 54.3373C47.1055 54.2162 47.0579 54.1098 46.9861 54.0184C46.9162 53.9267 46.8267 53.8577 46.7176 53.8113C46.6102 53.7629 46.489 53.7466 46.354 53.7625C46.1989 53.7807 46.0721 53.827 45.9736 53.9015C45.8766 53.9739 45.8033 54.0658 45.7534 54.1771C45.7052 54.2863 45.6748 54.4055 45.6623 54.5346C45.6513 54.6616 45.6534 54.7899 45.6686 54.9195L45.6822 55.0344C45.6974 55.164 45.7252 55.2902 45.7655 55.4131C45.8058 55.536 45.8621 55.645 45.9343 55.7401C46.0083 55.835 46.101 55.9073 46.2123 55.9571C46.3252 56.0049 46.4601 56.0196 46.617 56.0012ZM48.1181 54.7234L48.1107 54.6604C48.0856 54.4469 48.0933 54.2453 48.1339 54.0556C48.1743 53.864 48.245 53.6939 48.3459 53.5452C48.4466 53.3946 48.5755 53.2722 48.7328 53.1779C48.8898 53.0818 49.0714 53.0216 49.2776 52.9974C49.4856 52.9729 49.6771 52.9893 49.8521 53.0464C50.0288 53.1015 50.1835 53.1906 50.3164 53.3137C50.4508 53.4348 50.5599 53.5839 50.6436 53.7608C50.727 53.936 50.7813 54.1303 50.8064 54.3438L50.8138 54.4067C50.8389 54.6202 50.8311 54.8218 50.7905 55.0115C50.7499 55.2013 50.6784 55.3715 50.5758 55.5223C50.4749 55.671 50.346 55.7935 50.1889 55.8896C50.0335 55.9837 49.8518 56.0429 49.6438 56.0674C49.4358 56.0918 49.2444 56.0764 49.0696 56.0211C48.8946 55.9639 48.7398 55.8748 48.6054 55.7537C48.4725 55.6306 48.3644 55.4815 48.2809 55.3063C48.1974 55.1311 48.1431 54.9368 48.1181 54.7234ZM48.617 54.6009L48.6244 54.6639C48.6417 54.8117 48.6755 54.9492 48.7256 55.0765C48.7754 55.202 48.8409 55.3108 48.9221 55.403C49.005 55.495 49.1028 55.564 49.2155 55.6099C49.328 55.6541 49.4545 55.6679 49.5949 55.6514C49.7336 55.6351 49.8516 55.5926 49.949 55.5238C50.0479 55.453 50.1262 55.3633 50.1837 55.2548C50.2413 55.1463 50.2798 55.0253 50.2992 54.8917C50.3203 54.756 50.3221 54.6143 50.3047 54.4665L50.2974 54.4036C50.2802 54.2576 50.2458 54.122 50.1941 53.9968C50.144 53.8695 50.0774 53.7598 49.9945 53.6678C49.9132 53.5738 49.8162 53.5038 49.7035 53.4579C49.5926 53.4117 49.4669 53.3969 49.3265 53.4134C49.1878 53.4296 49.069 53.4732 48.97 53.544C48.8729 53.6146 48.7947 53.7052 48.7356 53.8157C48.678 53.9242 48.6396 54.0462 48.6204 54.1816C48.601 54.3152 48.5998 54.455 48.617 54.6009ZM51.8576 53.3463L52.1364 55.7191L51.6274 55.7789L51.2795 52.8177L51.7611 52.7612L51.8576 53.3463ZM51.8453 54.1385L51.6089 54.158C51.587 53.9552 51.5915 53.7651 51.6224 53.5876C51.6531 53.4083 51.7111 53.2489 51.7965 53.1094C51.8818 52.9699 51.9952 52.8567 52.1367 52.7698C52.278 52.681 52.4471 52.6251 52.6441 52.602C52.7828 52.5857 52.9129 52.5907 53.0344 52.6172C53.1556 52.6418 53.2641 52.691 53.3597 52.7648C53.4553 52.8387 53.5346 52.9385 53.5974 53.0643C53.6603 53.1901 53.7027 53.3461 53.7245 53.5322L53.9564 55.5054L53.4501 55.5648L53.2211 53.6163C53.2029 53.4612 53.1619 53.3402 53.098 53.2534C53.036 53.1663 52.9551 53.1074 52.8553 53.0766C52.7553 53.0439 52.6414 53.0351 52.5137 53.0501C52.3641 53.0677 52.2422 53.1088 52.1481 53.1735C52.0539 53.2382 51.9822 53.3206 51.933 53.4207C51.8837 53.5209 51.8524 53.6327 51.8392 53.7564C51.8276 53.878 51.8296 54.0054 51.8453 54.1385ZM53.731 53.6341L53.4038 53.7779C53.3866 53.6153 53.3947 53.4562 53.4282 53.3006C53.4635 53.1448 53.5236 53.0027 53.6084 52.8744C53.695 52.7458 53.8074 52.6392 53.9454 52.5546C54.0832 52.4681 54.2461 52.4138 54.434 52.3917C54.5927 52.3731 54.7357 52.3776 54.8629 52.4052C54.9919 52.4326 55.1035 52.4851 55.1977 52.5628C55.2935 52.6385 55.3713 52.7413 55.4309 52.8712C55.4906 53.001 55.5313 53.159 55.5532 53.3451L55.7818 55.291L55.2727 55.3508L55.0435 53.3994C55.024 53.2334 54.9824 53.1079 54.9188 53.0229C54.8568 52.9358 54.7762 52.8796 54.677 52.8543C54.5795 52.8269 54.4659 52.8208 54.3364 52.836C54.2251 52.8491 54.1288 52.8798 54.0476 52.9282C53.9663 52.9766 53.9005 53.038 53.85 53.1123C53.7993 53.1849 53.7635 53.2658 53.7426 53.3552C53.7235 53.4444 53.7196 53.5374 53.731 53.6341ZM56.7869 52.7674L57.0657 55.1402L56.5566 55.2L56.2087 52.2388L56.6904 52.1822L56.7869 52.7674ZM56.7745 53.5596L56.5382 53.579C56.5162 53.3763 56.5207 53.1862 56.5517 53.0087C56.5824 52.8293 56.6404 52.6699 56.7258 52.5304C56.8111 52.3909 56.9245 52.2777 57.066 52.1908C57.2072 52.1021 57.3764 52.0461 57.5734 52.023C57.7121 52.0067 57.8422 52.0118 57.9636 52.0382C58.0849 52.0628 58.1934 52.112 58.289 52.1859C58.3846 52.2597 58.4638 52.3596 58.5267 52.4854C58.5896 52.6112 58.6319 52.7671 58.6538 52.9532L58.8856 54.9264L58.3793 54.9859L58.1504 53.0373C58.1322 52.8822 58.0911 52.7613 58.0273 52.6744C57.9653 52.5874 57.8844 52.5284 57.7846 52.4976C57.6845 52.465 57.5707 52.4562 57.443 52.4712C57.2933 52.4887 57.1715 52.5299 57.0773 52.5946C56.9832 52.6593 56.9115 52.7417 56.8622 52.8418C56.8129 52.9419 56.7817 53.0538 56.7685 53.1774C56.7569 53.299 56.7589 53.4264 56.7745 53.5596ZM58.6602 53.0551L58.3331 53.199C58.3158 53.0364 58.324 52.8773 58.3575 52.7217C58.3928 52.5658 58.4529 52.4237 58.5377 52.2954C58.6243 52.1669 58.7366 52.0603 58.8747 51.9756C59.0125 51.8891 59.1753 51.8349 59.3633 51.8128C59.522 51.7941 59.665 51.7986 59.7921 51.8262C59.9211 51.8536 60.0327 51.9062 60.127 51.9839C60.2228 52.0596 60.3005 52.1623 60.3602 52.2922C60.4198 52.4221 60.4606 52.5801 60.4824 52.7662L60.7111 54.712L60.202 54.7718L59.9728 52.8205C59.9533 52.6545 59.9117 52.5289 59.8481 52.4439C59.786 52.3569 59.7055 52.3007 59.6063 52.2753C59.5087 52.2479 59.3952 52.2419 59.2656 52.2571C59.1544 52.2701 59.0581 52.3009 58.9768 52.3493C58.8956 52.3976 58.8297 52.459 58.7793 52.5334C58.7286 52.6059 58.6928 52.6869 58.6719 52.7763C58.6527 52.8655 58.6489 52.9584 58.6602 53.0551ZM62.7266 54.5308C62.5204 54.555 62.3294 54.5423 62.1534 54.4927C61.979 54.441 61.8241 54.3584 61.6886 54.2448C61.555 54.131 61.446 53.9903 61.3616 53.8227C61.2771 53.655 61.2227 53.4672 61.1983 53.2592L61.1848 53.1443C61.1565 52.9034 61.1669 52.6849 61.2159 52.4886C61.2648 52.2905 61.3426 52.1186 61.4494 51.9728C61.5563 51.8271 61.6832 51.7114 61.8304 51.6257C61.9775 51.5399 62.1341 51.4873 62.3002 51.4678C62.5118 51.443 62.6986 51.458 62.8604 51.513C63.024 51.5678 63.1629 51.6551 63.2768 51.7749C63.3906 51.8928 63.4815 52.0375 63.5498 52.2089C63.6178 52.3785 63.664 52.5673 63.6885 52.7753L63.7151 53.0024L61.5038 53.2622L61.4553 52.8489L63.1603 52.6486L63.1558 52.6103C63.133 52.4798 63.0907 52.3553 63.0287 52.2368C62.9685 52.1181 62.8835 52.0245 62.7737 51.956C62.6639 51.8875 62.5224 51.8635 62.349 51.8838C62.2341 51.8973 62.1312 51.9344 62.0403 51.995C61.9491 52.0538 61.8745 52.1347 61.8163 52.2377C61.7581 52.3407 61.7179 52.4629 61.6957 52.6043C61.6734 52.7456 61.6728 52.9057 61.6938 53.0845L61.7073 53.1994C61.7238 53.3399 61.7585 53.4699 61.8114 53.5895C61.8659 53.707 61.936 53.8079 62.0218 53.8922C62.1093 53.9762 62.21 54.0384 62.3239 54.0787C62.4396 54.1187 62.5668 54.1306 62.7054 54.1143C62.8842 54.0933 63.0314 54.039 63.1469 53.9515C63.2624 53.8639 63.3595 53.7536 63.4381 53.6204L63.7733 53.828C63.7208 53.9322 63.6504 54.0338 63.5622 54.133C63.474 54.2321 63.361 54.3175 63.2233 54.3892C63.0874 54.4607 62.9218 54.5078 62.7266 54.5308ZM64.6906 51.7142L64.9838 54.2102L64.4775 54.2696L64.1296 51.3085L64.6222 51.2506L64.6906 51.7142ZM65.559 51.1239L65.6116 51.595C65.5686 51.5908 65.5278 51.59 65.4893 51.5927C65.4523 51.5933 65.4102 51.5964 65.3627 51.602C65.2459 51.6157 65.145 51.6461 65.0599 51.6931C64.9748 51.7401 64.9051 51.8 64.8507 51.873C64.7964 51.946 64.7564 52.0302 64.7306 52.1257C64.7064 52.2192 64.6952 52.3204 64.6969 52.4293L64.5643 52.5281C64.5432 52.3493 64.5409 52.1794 64.5571 52.0185C64.5751 51.8573 64.6145 51.7121 64.6752 51.5829C64.7356 51.4518 64.8193 51.3458 64.9263 51.2648C65.035 51.1818 65.1696 51.1308 65.3301 51.112C65.3666 51.1077 65.4091 51.1073 65.4576 51.1109C65.5059 51.1126 65.5397 51.1169 65.559 51.1239ZM67.4787 53.5509C67.5991 53.5368 67.7075 53.4991 67.8039 53.4378C67.9003 53.3765 67.9763 53.2992 68.0319 53.2057C68.0873 53.1104 68.113 53.0066 68.1091 52.8942L68.5907 52.8376C68.6022 53.0139 68.5621 53.1841 68.4704 53.3484C68.3803 53.5107 68.2532 53.6486 68.089 53.7622C67.9245 53.874 67.7374 53.9423 67.5276 53.9669C67.305 53.993 67.1061 53.9766 66.9308 53.9177C66.7574 53.8585 66.6079 53.7669 66.4824 53.643C66.3586 53.5188 66.259 53.3714 66.1835 53.2008C66.1096 53.0283 66.0609 52.8425 66.0376 52.6437L66.0241 52.5287C66.0007 52.3298 66.0051 52.1388 66.0372 51.9556C66.0709 51.7704 66.1336 51.603 66.2251 51.4535C66.3185 51.3038 66.4427 51.1801 66.5977 51.0824C66.7545 50.9844 66.9442 50.9224 67.1668 50.8962C67.3985 50.869 67.6066 50.8927 67.7911 50.9672C67.9754 51.0399 68.1263 51.1516 68.2439 51.3024C68.3631 51.4512 68.4393 51.6272 68.4724 51.8305L67.9907 51.8871C67.9673 51.7659 67.9196 51.6596 67.8478 51.5682C67.7779 51.4765 67.6884 51.4075 67.5794 51.3611C67.4719 51.3127 67.3507 51.2964 67.2157 51.3122C67.0606 51.3304 66.9338 51.3768 66.8353 51.4512C66.7383 51.5237 66.665 51.6155 66.6152 51.7268C66.567 51.836 66.5366 51.9552 66.524 52.0843C66.513 52.2114 66.5151 52.3397 66.5304 52.4692L66.5439 52.5842C66.5591 52.7137 66.5869 52.8399 66.6272 52.9628C66.6675 53.0857 66.7238 53.1947 66.796 53.2898C66.8701 53.3847 66.9627 53.4571 67.074 53.5069C67.1869 53.5547 67.3218 53.5693 67.4787 53.5509ZM70.5192 53.6155C70.313 53.6397 70.122 53.627 69.946 53.5774C69.7716 53.5258 69.6167 53.4432 69.4812 53.3296C69.3476 53.2158 69.2386 53.0751 69.1542 52.9074C69.0697 52.7398 69.0153 52.5519 68.9909 52.3439L68.9774 52.229C68.9491 51.9882 68.9595 51.7696 69.0085 51.5733C69.0574 51.3752 69.1352 51.2033 69.2421 51.0576C69.3489 50.9119 69.4758 50.7961 69.623 50.7104C69.7701 50.6247 69.9267 50.5721 70.0928 50.5526C70.3044 50.5277 70.4912 50.5428 70.653 50.5978C70.8166 50.6525 70.9555 50.7398 71.0694 50.8596C71.1832 50.9776 71.2741 51.1223 71.3424 51.2937C71.4104 51.4632 71.4566 51.652 71.4811 51.86L71.5077 52.0872L69.2964 52.3469L69.2479 51.9337L70.9529 51.7334L70.9484 51.6951C70.9257 51.5646 70.8833 51.4401 70.8213 51.3216C70.7611 51.2029 70.6761 51.1093 70.5663 51.0408C70.4565 50.9723 70.315 50.9482 70.1416 50.9686C70.0267 50.9821 69.9238 51.0191 69.8329 51.0797C69.7417 51.1385 69.6671 51.2195 69.6089 51.3225C69.5507 51.4255 69.5105 51.5477 69.4883 51.689C69.466 51.8303 69.4654 51.9904 69.4864 52.1692L69.4999 52.2842C69.5164 52.4246 69.5511 52.5547 69.604 52.6742C69.6585 52.7918 69.7286 52.8927 69.8144 52.9769C69.9019 53.061 70.0026 53.1231 70.1165 53.1634C70.2322 53.2035 70.3594 53.2153 70.498 53.1991C70.6768 53.1781 70.824 53.1238 70.9395 53.0362C71.055 52.9487 71.1521 52.8383 71.2307 52.7051L71.5659 52.9127C71.5134 53.0169 71.443 53.1186 71.3548 53.2177C71.2666 53.3169 71.1536 53.4023 71.0159 53.474C70.88 53.5454 70.7144 53.5926 70.5192 53.6155ZM74.817 52.689C74.9374 52.6749 75.0458 52.6372 75.1422 52.5759C75.2386 52.5146 75.3146 52.4373 75.3702 52.3438C75.4256 52.2485 75.4513 52.1447 75.4474 52.0323L75.929 51.9757C75.9405 52.152 75.9004 52.3222 75.8087 52.4865C75.7186 52.6488 75.5915 52.7867 75.4273 52.9003C75.2628 53.0121 75.0757 53.0804 74.8659 53.105C74.6433 53.1311 74.4444 53.1147 74.2691 53.0558C74.0957 52.9966 73.9462 52.905 73.8207 52.7811C73.6969 52.6569 73.5973 52.5095 73.5218 52.3389C73.4479 52.1664 73.3992 51.9806 73.3759 51.7818L73.3624 51.6668C73.339 51.4679 73.3434 51.2769 73.3755 51.0937C73.4092 50.9085 73.4719 50.7411 73.5634 50.5916C73.6568 50.4419 73.781 50.3182 73.936 50.2205C74.0928 50.1225 74.2825 50.0605 74.5051 50.0343C74.7368 50.0071 74.9449 50.0308 75.1294 50.1053C75.3137 50.178 75.4646 50.2897 75.5822 50.4405C75.7014 50.5893 75.7776 50.7653 75.8107 50.9686L75.329 51.0252C75.3056 50.904 75.2579 50.7977 75.1861 50.7063C75.1162 50.6146 75.0267 50.5456 74.9176 50.4992C74.8102 50.4508 74.689 50.4345 74.554 50.4503C74.3989 50.4685 74.2721 50.5149 74.1736 50.5893C74.0766 50.6618 74.0033 50.7536 73.9535 50.8649C73.9053 50.9742 73.8749 51.0933 73.8623 51.2224C73.8513 51.3495 73.8534 51.4778 73.8687 51.6073L73.8822 51.7223C73.8974 51.8518 73.9252 51.978 73.9655 52.1009C74.0058 52.2238 74.0621 52.3328 74.1343 52.4279C74.2084 52.5228 74.301 52.5952 74.4123 52.645C74.5252 52.6928 74.6601 52.7074 74.817 52.689ZM76.3181 51.4112L76.3107 51.3483C76.2856 51.1348 76.2934 50.9332 76.334 50.7435C76.3743 50.5519 76.445 50.3818 76.5459 50.233C76.6466 50.0825 76.7755 49.96 76.9328 49.8657C77.0898 49.7696 77.2714 49.7094 77.4776 49.6852C77.6856 49.6608 77.8771 49.6771 78.0521 49.7343C78.2288 49.7894 78.3835 49.8785 78.5164 50.0016C78.6508 50.1227 78.7599 50.2717 78.8436 50.4487C78.9271 50.6239 78.9813 50.8182 79.0064 51.0317L79.0138 51.0946C79.0389 51.3081 79.0311 51.5097 78.9905 51.6994C78.9499 51.8891 78.8784 52.0594 78.7759 52.2102C78.6749 52.3589 78.546 52.4813 78.3889 52.5775C78.2335 52.6715 78.0518 52.7308 77.8438 52.7552C77.6358 52.7797 77.4444 52.7642 77.2696 52.7089C77.0946 52.6518 76.9398 52.5627 76.8054 52.4416C76.6725 52.3185 76.5644 52.1693 76.4809 51.9942C76.3974 51.819 76.3432 51.6247 76.3181 51.4112ZM76.817 51.2888L76.8244 51.3518C76.8417 51.4995 76.8755 51.6371 76.9256 51.7644C76.9755 51.8898 77.041 51.9987 77.1221 52.0909C77.205 52.1829 77.3028 52.2518 77.4155 52.2978C77.528 52.3419 77.6545 52.3557 77.795 52.3392C77.9336 52.323 78.0516 52.2804 78.149 52.2117C78.2479 52.1408 78.3262 52.0512 78.3837 51.9427C78.4413 51.8342 78.4798 51.7132 78.4992 51.5795C78.5203 51.4439 78.5221 51.3022 78.5048 51.1544L78.4974 51.0914C78.4802 50.9455 78.4458 50.8099 78.3941 50.6846C78.344 50.5573 78.2775 50.4477 78.1945 50.3557C78.1132 50.2617 78.0162 50.1917 77.9035 50.1457C77.7926 50.0995 77.667 50.0847 77.5265 50.1012C77.3878 50.1175 77.269 50.161 77.17 50.2319C77.0729 50.3025 76.9947 50.393 76.9356 50.5036C76.878 50.612 76.8397 50.734 76.8204 50.8694C76.801 51.0031 76.7998 51.1428 76.817 51.2888ZM80.0655 50.0777L80.3391 52.4067L79.8328 52.4661L79.4849 49.5049L79.9639 49.4487L80.0655 50.0777ZM80.0316 50.828L79.8199 50.8445C79.7979 50.6418 79.8061 50.4513 79.8443 50.2729C79.8823 50.0927 79.9467 49.9326 80.0376 49.7924C80.1284 49.6523 80.2427 49.539 80.3805 49.4525C80.5199 49.364 80.679 49.3092 80.8578 49.2882C81.0038 49.2711 81.1375 49.2757 81.259 49.3021C81.3803 49.3267 81.487 49.3771 81.5792 49.4532C81.6732 49.5291 81.7501 49.6329 81.81 49.7646C81.8696 49.8944 81.9109 50.057 81.9339 50.2522L82.1618 52.1926L81.6528 52.2524L81.4242 50.3065C81.406 50.1514 81.3686 50.0301 81.312 49.9424C81.2553 49.8528 81.1806 49.7922 81.0881 49.7606C80.9954 49.7271 80.8852 49.7178 80.7575 49.7328C80.6316 49.7476 80.5198 49.7876 80.422 49.8527C80.326 49.9176 80.2461 50.001 80.1822 50.1028C80.1202 50.2044 80.0752 50.3179 80.0474 50.4433C80.0212 50.5666 80.0159 50.6948 80.0316 50.828ZM83.7916 51.5378L84.3075 48.9385L84.8247 48.8778L84.108 51.964L83.7687 52.0039L83.7916 51.5378ZM82.8214 49.1131L83.9519 51.5329L84.0615 51.9695L83.7221 52.0093L82.3014 49.1741L82.8214 49.1131ZM86.8707 51.695C86.6645 51.7192 86.4735 51.7065 86.2975 51.6569C86.1231 51.6053 85.9682 51.5226 85.8327 51.4091C85.6991 51.2953 85.5901 51.1546 85.5057 50.9869C85.4212 50.8193 85.3668 50.6314 85.3424 50.4234L85.3289 50.3085C85.3006 50.0677 85.311 49.8491 85.36 49.6528C85.4089 49.4547 85.4867 49.2828 85.5936 49.1371C85.7004 48.9913 85.8273 48.8756 85.9745 48.7899C86.1216 48.7042 86.2782 48.6516 86.4443 48.6321C86.6559 48.6072 86.8427 48.6223 87.0045 48.6773C87.1681 48.732 87.307 48.8193 87.4209 48.9391C87.5347 49.0571 87.6256 49.2017 87.6939 49.3732C87.7619 49.5427 87.8081 49.7315 87.8326 49.9395L87.8592 50.1667L85.6479 50.4264L85.5994 50.0131L87.3044 49.8129L87.2999 49.7746C87.2771 49.6441 87.2348 49.5196 87.1728 49.4011C87.1126 49.2824 87.0276 49.1888 86.9178 49.1203C86.808 49.0518 86.6665 49.0277 86.4931 49.0481C86.3782 49.0616 86.2753 49.0986 86.1844 49.1592C86.0932 49.218 86.0186 49.2989 85.9604 49.402C85.9022 49.505 85.862 49.6272 85.8398 49.7685C85.8175 49.9098 85.8169 50.0699 85.8379 50.2487L85.8514 50.3636C85.8679 50.5041 85.9026 50.6342 85.9555 50.7537C86.01 50.8713 86.0801 50.9722 86.1659 51.0564C86.2534 51.1405 86.3541 51.2026 86.468 51.2429C86.5837 51.2829 86.7109 51.2948 86.8495 51.2785C87.0283 51.2575 87.1755 51.2033 87.291 51.1157C87.4065 51.0282 87.5036 50.9178 87.5822 50.7846L87.9174 50.9922C87.8649 51.0964 87.7945 51.1981 87.7063 51.2972C87.6181 51.3964 87.5051 51.4818 87.3674 51.5534C87.2315 51.6249 87.0659 51.6721 86.8707 51.695ZM88.8347 48.8785L89.1279 51.3744L88.6216 51.4339L88.2737 48.4727L88.7663 48.4148L88.8347 48.8785ZM89.7031 48.2882L89.7557 48.7592C89.7127 48.755 89.6719 48.7542 89.6334 48.7569C89.5964 48.7576 89.5543 48.7607 89.5068 48.7662C89.39 48.7799 89.2891 48.8103 89.204 48.8573C89.1189 48.9043 89.0492 48.9643 88.9948 49.0372C88.9405 49.1102 88.9005 49.1944 88.8747 49.29C88.8505 49.3834 88.8393 49.4846 88.841 49.5936L88.7084 49.6924C88.6873 49.5136 88.685 49.3437 88.7012 49.1827C88.7192 49.0215 88.7586 48.8763 88.8193 48.7471C88.8797 48.6161 88.9634 48.5101 89.0704 48.4291C89.1791 48.346 89.3137 48.2951 89.4742 48.2762C89.5107 48.2719 89.5532 48.2715 89.6017 48.2751C89.65 48.2768 89.6838 48.2812 89.7031 48.2882ZM92.1669 50.2212C92.1583 50.1482 92.1339 50.0826 92.0938 50.0245C92.0553 49.9642 91.9838 49.9144 91.8792 49.8749C91.7763 49.8333 91.625 49.8048 91.4253 49.7894C91.257 49.7741 91.1035 49.7505 90.9647 49.7187C90.8278 49.6867 90.7088 49.6424 90.6078 49.5858C90.5087 49.529 90.4291 49.4579 90.3691 49.3725C90.3091 49.287 90.272 49.1832 90.2576 49.0609C90.2439 48.9442 90.2565 48.8308 90.2953 48.7208C90.336 48.6106 90.3991 48.5098 90.4845 48.4183C90.5718 48.3267 90.6803 48.2501 90.8099 48.1887C90.9396 48.1272 91.0874 48.0867 91.2535 48.0672C91.4906 48.0394 91.6981 48.0575 91.8758 48.1218C92.0535 48.186 92.1953 48.2831 92.3012 48.4131C92.4069 48.5412 92.4698 48.6901 92.4897 48.8598L91.9834 48.9193C91.9737 48.8372 91.9398 48.7607 91.8815 48.6899C91.8249 48.617 91.747 48.5605 91.648 48.5203C91.5507 48.4799 91.4355 48.4676 91.3023 48.4832C91.1618 48.4997 91.0504 48.535 90.9679 48.5891C90.8871 48.6411 90.8305 48.7023 90.7981 48.7727C90.7675 48.8429 90.7565 48.9145 90.765 48.9875C90.7715 49.0422 90.7864 49.0904 90.8098 49.132C90.8348 49.1716 90.874 49.2068 90.9276 49.2375C90.9809 49.2664 91.0541 49.2911 91.1472 49.3116C91.2402 49.3321 91.3579 49.3497 91.5002 49.3645C91.7493 49.3907 91.9568 49.4329 92.1227 49.4911C92.2886 49.5493 92.4164 49.6296 92.5061 49.7319C92.5958 49.8342 92.65 49.9647 92.6687 50.1234C92.6839 50.2529 92.6704 50.3748 92.6284 50.4888C92.5881 50.6027 92.5215 50.7048 92.4285 50.7953C92.3372 50.8837 92.2238 50.9581 92.0885 51.0184C91.9548 51.0766 91.8012 51.1159 91.6279 51.1363C91.367 51.1669 91.1408 51.1463 90.9492 51.0745C90.7576 51.0026 90.6067 50.8983 90.4962 50.7614C90.3858 50.6246 90.321 50.4741 90.3017 50.3099L90.8107 50.2501C90.8343 50.3879 90.8874 50.4935 90.97 50.5671C91.0525 50.6388 91.1486 50.6857 91.2585 50.708C91.3682 50.7284 91.475 50.7325 91.579 50.7203C91.7177 50.704 91.8314 50.6721 91.9202 50.6247C92.0108 50.5771 92.0769 50.5185 92.1187 50.4488C92.1604 50.3792 92.1765 50.3033 92.1669 50.2212ZM93.6467 47.8416L93.9946 50.8028L93.4855 50.8626L93.1376 47.9014L93.6467 47.8416ZM93.007 47.1205C92.9974 47.0384 93.0139 46.9661 93.0565 46.9038C93.1009 46.8412 93.1724 46.8042 93.271 46.7926C93.3677 46.7812 93.4449 46.8008 93.5026 46.8514C93.5622 46.9017 93.5968 46.968 93.6064 47.0501C93.6156 47.1285 93.5971 47.1991 93.5508 47.2619C93.5062 47.3226 93.4355 47.3587 93.3388 47.37C93.2403 47.3816 93.1623 47.363 93.1047 47.3143C93.0488 47.2635 93.0163 47.1989 93.007 47.1205ZM94.5172 49.2737L94.5098 49.2107C94.4848 48.9973 94.4925 48.7957 94.5331 48.6059C94.5735 48.4144 94.6441 48.2442 94.745 48.0955C94.8457 47.945 94.9747 47.8225 95.1319 47.7282C95.289 47.6321 95.4706 47.5719 95.6767 47.5477C95.8847 47.5233 96.0763 47.5396 96.2513 47.5967C96.4279 47.6518 96.5827 47.7409 96.7155 47.8641C96.85 47.9852 96.9591 48.1342 97.0427 48.3112C97.1262 48.4863 97.1805 48.6807 97.2056 48.8941L97.213 48.9571C97.238 49.1705 97.2303 49.3721 97.1897 49.5619C97.1491 49.7516 97.0775 49.9219 96.975 50.0726C96.8741 50.2214 96.7451 50.3438 96.5881 50.4399C96.4327 50.534 96.251 50.5933 96.043 50.6177C95.835 50.6421 95.6436 50.6267 95.4688 50.5714C95.2937 50.5143 95.139 50.4252 95.0045 50.3041C94.8717 50.181 94.7635 50.0318 94.68 49.8566C94.5966 49.6815 94.5423 49.4872 94.5172 49.2737ZM95.0161 49.1513L95.0235 49.2142C95.0409 49.362 95.0746 49.4996 95.1247 49.6268C95.1746 49.7523 95.2401 49.8612 95.3212 49.9534C95.4042 50.0453 95.502 50.1143 95.6147 50.1603C95.7271 50.2044 95.8536 50.2182 95.9941 50.2017C96.1328 50.1854 96.2508 50.1429 96.3481 50.0741C96.4471 50.0033 96.5253 49.9137 96.5829 49.8052C96.6404 49.6967 96.6789 49.5756 96.6984 49.442C96.7194 49.3064 96.7213 49.1646 96.7039 49.0169L96.6965 48.9539C96.6794 48.808 96.6449 48.6723 96.5932 48.5471C96.5431 48.4198 96.4766 48.3102 96.3937 48.2182C96.3123 48.1241 96.2153 48.0541 96.1026 48.0082C95.9918 47.962 95.8661 47.9472 95.7256 47.9637C95.587 47.98 95.4681 48.0235 95.3692 48.0943C95.272 48.1649 95.1939 48.2555 95.1347 48.366C95.0772 48.4745 95.0388 48.5965 95.0196 48.7319C95.0001 48.8655 94.999 49.0053 95.0161 49.1513ZM98.2647 47.9401L98.5383 50.2691L98.032 50.3286L97.6841 47.3674L98.163 47.3112L98.2647 47.9401ZM98.2307 48.6905L98.019 48.707C97.9971 48.5043 98.0052 48.3137 98.0434 48.1354C98.0815 47.9552 98.1459 47.795 98.2367 47.6549C98.3275 47.5147 98.4418 47.4014 98.5797 47.315C98.7191 47.2264 98.8782 47.1717 99.057 47.1507C99.203 47.1335 99.3367 47.1382 99.4582 47.1646C99.5794 47.1892 99.6862 47.2396 99.7783 47.3157C99.8723 47.3916 99.9493 47.4954 100.009 47.6271C100.069 47.7569 100.11 47.9195 100.133 48.1147L100.361 50.0551L99.852 50.1148L99.6233 48.169C99.6051 48.0139 99.5677 47.8925 99.5112 47.8048C99.4544 47.7153 99.3798 47.6547 99.2873 47.623C99.1946 47.5895 99.0844 47.5803 98.9566 47.5953C98.8307 47.6101 98.7189 47.65 98.6211 47.7152C98.5252 47.7801 98.4453 47.8634 98.3814 47.9653C98.3193 48.0669 98.2744 48.1804 98.2466 48.3057C98.2204 48.429 98.2151 48.5573 98.2307 48.6905ZM102.761 47.2428L103.055 49.7387L102.548 49.7982L102.2 46.837L102.693 46.7791L102.761 47.2428ZM103.63 46.6524L103.682 47.1235C103.639 47.1193 103.599 47.1185 103.56 47.1212C103.523 47.1218 103.481 47.1249 103.434 47.1305C103.317 47.1442 103.216 47.1746 103.131 47.2216C103.046 47.2686 102.976 47.3285 102.922 47.4015C102.867 47.4745 102.827 47.5587 102.801 47.6542C102.777 47.7477 102.766 47.8489 102.768 47.9578L102.635 48.0567C102.614 47.8779 102.612 47.708 102.628 47.547C102.646 47.3858 102.685 47.2406 102.746 47.1114C102.806 46.9804 102.89 46.8743 102.997 46.7933C103.106 46.7103 103.24 46.6593 103.401 46.6405C103.437 46.6362 103.48 46.6358 103.528 46.6394C103.577 46.6411 103.611 46.6455 103.63 46.6524ZM106.039 48.8749L105.86 47.3505C105.846 47.2338 105.81 47.1353 105.753 47.0551C105.697 46.9729 105.62 46.9135 105.521 46.877C105.422 46.8405 105.305 46.8303 105.168 46.8464C105.04 46.8614 104.931 46.8964 104.839 46.9516C104.749 47.0065 104.681 47.0728 104.635 47.1503C104.59 47.2277 104.573 47.3075 104.582 47.3896L104.076 47.449C104.064 47.3432 104.079 47.2351 104.121 47.1247C104.164 47.0142 104.231 46.9111 104.324 46.8151C104.417 46.7172 104.534 46.6351 104.672 46.5689C104.812 46.5007 104.971 46.456 105.15 46.435C105.365 46.4098 105.559 46.424 105.732 46.4777C105.907 46.5311 106.049 46.6263 106.16 46.7632C106.272 46.898 106.341 47.0758 106.367 47.2965L106.529 48.6759C106.54 48.7744 106.561 48.8783 106.59 48.9877C106.622 49.0969 106.659 49.1895 106.703 49.2657L106.709 49.3095L106.18 49.3716C106.148 49.3162 106.119 49.241 106.093 49.146C106.067 49.0492 106.049 48.9588 106.039 48.8749ZM105.975 47.5756L106.022 47.9307L105.51 47.9908C105.366 48.0078 105.239 48.0347 105.129 48.0717C105.018 48.1069 104.927 48.1518 104.856 48.2064C104.785 48.2611 104.733 48.3254 104.701 48.3994C104.669 48.4716 104.658 48.5534 104.669 48.6446C104.68 48.7376 104.711 48.82 104.762 48.8917C104.813 48.9634 104.883 49.0172 104.972 49.0529C105.063 49.0866 105.17 49.0962 105.295 49.0816C105.45 49.0634 105.583 49.0145 105.693 48.9349C105.804 48.8553 105.889 48.764 105.947 48.6609C106.007 48.5577 106.035 48.4611 106.03 48.371L106.274 48.5892C106.271 48.6673 106.246 48.7562 106.2 48.8559C106.155 48.9556 106.089 49.0539 106.005 49.1508C105.921 49.2457 105.818 49.329 105.695 49.4008C105.574 49.4705 105.433 49.5148 105.273 49.5337C105.072 49.5572 104.891 49.5387 104.731 49.478C104.572 49.4171 104.443 49.3259 104.343 49.2044C104.246 49.0809 104.187 48.937 104.168 48.7728C104.149 48.6141 104.164 48.4709 104.212 48.3431C104.259 48.2136 104.337 48.1019 104.444 48.0079C104.551 47.912 104.685 47.8335 104.844 47.7723C105.003 47.711 105.184 47.6685 105.387 47.6447L105.975 47.5756ZM108.307 46.1198L108.353 46.5084L106.751 46.6964L106.706 46.3078L108.307 46.1198ZM107.163 45.5244L107.669 45.4649L108.016 48.4124C108.028 48.5128 108.052 48.5867 108.089 48.6341C108.126 48.6816 108.17 48.7106 108.221 48.7212C108.272 48.7319 108.326 48.7339 108.383 48.7272C108.425 48.7223 108.468 48.7135 108.513 48.7008C108.559 48.6861 108.594 48.6747 108.617 48.6664L108.668 49.0793C108.63 49.0968 108.578 49.1149 108.514 49.1336C108.452 49.1538 108.375 49.1693 108.284 49.18C108.159 49.1946 108.043 49.1834 107.933 49.1463C107.823 49.1093 107.73 49.0369 107.655 48.9293C107.581 48.8196 107.532 48.6662 107.509 48.4692L107.163 45.5244ZM110.498 48.92C110.292 48.9442 110.101 48.9315 109.925 48.8819C109.75 48.8302 109.595 48.7476 109.46 48.634C109.326 48.5202 109.217 48.3795 109.133 48.2119C109.048 48.0442 108.994 47.8564 108.97 47.6484L108.956 47.5334C108.928 47.2926 108.938 47.074 108.987 46.8778C109.036 46.6797 109.114 46.5077 109.221 46.362C109.328 46.2163 109.455 46.1006 109.602 46.0148C109.749 45.9291 109.905 45.8765 110.071 45.857C110.283 45.8322 110.47 45.8472 110.632 45.9022C110.795 45.957 110.934 46.0442 111.048 46.164C111.162 46.282 111.253 46.4267 111.321 46.5981C111.389 46.7677 111.435 46.9565 111.46 47.1645L111.486 47.3916L109.275 47.6513L109.227 47.2381L110.932 47.0378L110.927 46.9995C110.904 46.869 110.862 46.7445 110.8 46.626C110.74 46.5073 110.655 46.4137 110.545 46.3452C110.435 46.2767 110.294 46.2526 110.12 46.273C110.005 46.2865 109.902 46.3236 109.812 46.3842C109.72 46.443 109.646 46.5239 109.588 46.6269C109.529 46.7299 109.489 46.8521 109.467 46.9934C109.445 47.1348 109.444 47.2948 109.465 47.4736L109.479 47.5886C109.495 47.7291 109.53 47.8591 109.583 47.9787C109.637 48.0962 109.707 48.1971 109.793 48.2814C109.881 48.3654 109.981 48.4276 110.095 48.4678C110.211 48.5079 110.338 48.5198 110.477 48.5035C110.656 48.4825 110.803 48.4282 110.918 48.3407C111.034 48.2531 111.131 48.1427 111.209 48.0096L111.545 48.2171C111.492 48.3213 111.422 48.423 111.333 48.5222C111.245 48.6213 111.132 48.7067 110.995 48.7784C110.859 48.8498 110.693 48.897 110.498 48.92ZM112.195 48.3932C112.185 48.3074 112.203 48.2323 112.249 48.1677C112.297 48.101 112.372 48.0617 112.474 48.0497C112.576 48.0377 112.657 48.0587 112.717 48.1127C112.779 48.1646 112.815 48.2335 112.825 48.3193C112.835 48.4032 112.816 48.4776 112.768 48.5424C112.722 48.607 112.648 48.6453 112.545 48.6573C112.443 48.6693 112.361 48.6493 112.3 48.5973C112.24 48.5452 112.205 48.4771 112.195 48.3932ZM111.914 45.9763C111.904 45.8905 111.922 45.8154 111.968 45.7508C112.016 45.6841 112.091 45.6448 112.193 45.6328C112.295 45.6208 112.376 45.6418 112.436 45.6958C112.498 45.7478 112.534 45.8166 112.544 45.9024C112.554 45.9863 112.535 46.0607 112.487 46.1255C112.441 46.1901 112.366 46.2284 112.264 46.2404C112.162 46.2524 112.08 46.2324 112.019 46.1804C111.959 46.1283 111.924 46.0602 111.914 45.9763Z" fill="#919191"/>
<path d="M49.6711 71.4018L49.7946 72.4528L44.4524 73.0802L44.3463 72.1771L46.6083 69.0425C46.8552 68.688 47.047 68.3843 47.1838 68.1315C47.3205 67.8787 47.4108 67.6553 47.4546 67.4615C47.5017 67.2636 47.5147 67.0753 47.4937 66.8965C47.4641 66.6447 47.3907 66.4295 47.2736 66.2509C47.1596 66.0682 47.0068 65.9326 46.8151 65.8442C46.6231 65.7521 46.3993 65.721 46.1439 65.751C45.8483 65.7857 45.6077 65.8787 45.422 66.03C45.2363 66.1813 45.1056 66.3761 45.03 66.6143C44.954 66.8489 44.9329 67.1103 44.9668 67.3986L43.6477 67.5535C43.5932 67.0901 43.6493 66.6544 43.8159 66.2464C43.9821 65.8347 44.2527 65.4922 44.6275 65.2188C45.0019 64.9418 45.4719 64.77 46.0375 64.7036C46.5702 64.641 47.0332 64.6773 47.4264 64.8124C47.8196 64.9475 48.1322 65.1679 48.3642 65.4736C48.5998 65.7788 48.744 66.1559 48.7967 66.6047C48.8259 66.8528 48.8147 67.1039 48.7631 67.3578C48.7116 67.6117 48.6254 67.8697 48.5045 68.1317C48.3868 68.3897 48.242 68.6527 48.07 68.9208C47.8976 69.1852 47.7056 69.4556 47.4939 69.732L45.9929 71.8339L49.6711 71.4018ZM51.102 71.6333C51.078 71.429 51.1272 71.2493 51.2495 71.0944C51.3715 70.9358 51.551 70.8425 51.7882 70.8147C52.0291 70.7864 52.2254 70.8355 52.3771 70.9619C52.532 71.0843 52.6215 71.2477 52.6455 71.452C52.6695 71.6564 52.6204 71.836 52.498 71.991C52.3793 72.1455 52.1995 72.2369 51.9586 72.2652C51.7215 72.293 51.5254 72.2458 51.3704 72.1234C51.2155 72.001 51.126 71.8377 51.102 71.6333ZM57.054 63.4929L57.9935 71.4898L56.6744 71.6447L55.9188 65.2133L54.0425 66.1051L53.9146 65.0159L56.8953 63.5116L57.054 63.4929ZM60.2259 65.1292L60.1764 64.7077C60.1408 64.4048 60.1741 64.1216 60.2763 63.8581C60.3785 63.5945 60.5467 63.3731 60.7809 63.1939C61.0151 63.0148 61.3092 62.9044 61.6632 62.8628C62.0281 62.8199 62.3434 62.8587 62.6091 62.9792C62.8785 63.0992 63.0934 63.2756 63.2539 63.5083C63.4144 63.741 63.5125 64.0088 63.5481 64.3117L63.5976 64.7331C63.6323 65.0287 63.5986 65.3083 63.4964 65.5719C63.3978 65.835 63.2314 66.0561 62.9972 66.2353C62.7666 66.4141 62.4707 66.5247 62.1095 66.5671C61.7519 66.6091 61.4366 66.5703 61.1636 66.4507C60.8942 66.3307 60.6793 66.1543 60.5187 65.9216C60.3582 65.6889 60.2606 65.4247 60.2259 65.1292ZM61.0904 64.6003L61.14 65.0218C61.1571 65.1678 61.2008 65.3032 61.2709 65.4281C61.3447 65.5527 61.4448 65.6482 61.571 65.7148C61.6972 65.7813 61.846 65.8045 62.0175 65.7844C62.1927 65.7638 62.3303 65.707 62.4303 65.6138C62.534 65.5203 62.6055 65.4046 62.6448 65.2668C62.6841 65.129 62.6952 64.9871 62.678 64.8412L62.6285 64.4197C62.6109 64.2701 62.5652 64.133 62.4914 64.0085C62.4208 63.8799 62.3242 63.7821 62.2017 63.7151C62.0791 63.6482 61.9303 63.6249 61.7551 63.6455C61.5873 63.6652 61.4497 63.7221 61.3423 63.8161C61.2387 63.9096 61.1655 64.0274 61.123 64.1692C61.0837 64.307 61.0729 64.4507 61.0904 64.6003ZM64.5956 69.1662L64.5455 68.7392C64.5103 68.44 64.5438 68.1586 64.6461 67.8951C64.7519 67.6311 64.922 67.4095 65.1562 67.2303C65.3904 67.0511 65.6844 66.9407 66.0384 66.8992C66.4033 66.8563 66.7186 66.8951 66.9843 67.0156C67.2537 67.1356 67.4668 67.3122 67.6237 67.5453C67.7842 67.778 67.882 68.044 67.9172 68.3432L67.9673 68.7702C68.0025 69.0694 67.969 69.3508 67.8668 69.6143C67.7682 69.8775 67.6036 70.0984 67.3731 70.2772C67.1425 70.4559 66.8484 70.5663 66.4908 70.6083C66.1296 70.6507 65.8124 70.6121 65.5394 70.4925C65.2701 70.3725 65.0533 70.1963 64.8891 69.9641C64.7286 69.7313 64.6308 69.4654 64.5956 69.1662ZM65.465 68.6312L65.5152 69.0582C65.5323 69.2041 65.5778 69.3394 65.6516 69.4639C65.7291 69.5879 65.8312 69.6851 65.9578 69.7553C66.084 69.8219 66.2292 69.8455 66.3934 69.8262C66.5795 69.8044 66.7244 69.7466 66.8281 69.6531C66.9313 69.5559 66.9992 69.4406 67.0316 69.3073C67.0673 69.17 67.0763 69.0265 67.0587 68.8769L67.0086 68.4499C66.991 68.3003 66.9453 68.1633 66.8715 68.0388C66.8013 67.9138 66.7031 67.8181 66.5769 67.7515C66.4544 67.6845 66.3055 67.6613 66.1304 67.6819C65.9589 67.702 65.8213 67.7589 65.7176 67.8524C65.6139 67.946 65.5406 68.0619 65.4976 68.2001C65.4583 68.3379 65.4474 68.4816 65.465 68.6312ZM65.9868 63.6257L62.8269 70.3117L62.108 70.0022L65.2679 63.3162L65.9868 63.6257Z" fill="#001E41"/>
<path d="M44.1736 114.268L38.4533 107.816L39.9439 120.503L191.681 102.682L190.787 95.0694L184.837 86.6659L181.226 98.1711L175.277 89.7675L170.978 95.4172L164.799 85.0618L161.647 100.471L155.927 94.0189L151.629 99.6686L145.45 89.3132L141.61 98.8666L136.119 94.3667L132.279 103.92L126.1 93.5646L122.26 103.118L114.476 79.0998L112.241 102.316L105.374 86.1051L102.911 107.369L97.1902 100.918L90.3692 85.0972L87.4007 102.067L81.2677 92.1025L76.9233 97.3618L73.3127 108.867L67.8218 104.367L63.7526 111.969L57.115 97.7095L53.5045 109.215L47.5549 100.811L44.1736 114.268Z" fill="url(#paint0_linear_1_232)"/>
<path d="M38.4831 108.078L44.206 114.534L47.5882 101.068L53.5406 109.477L57.1523 97.9642L63.7931 112.234L67.8638 104.627L73.3572 109.13L76.9689 97.6169L81.3149 92.354L87.4509 102.326L90.4201 85.3441L97.2445 101.176L102.967 107.633L105.432 86.3532L112.302 102.576L114.537 79.3432L122.325 103.379L126.166 93.8188L132.348 104.182L136.189 94.6217L141.683 99.125L145.524 89.565L151.706 99.9279L156.006 94.2744L161.729 100.731L164.881 85.3112L171.063 95.6742L175.363 90.0206L181.316 98.4303L184.927 86.9171L190.88 95.3268" stroke="#98CB56" stroke-width="0.940576" stroke-linecap="round"/>
</g>
</g>
</g>
</g>
<defs>
<filter id="filter0_d_1_232" x="-0.596205" y="-0.676964" width="223.485" height="157.601" filterUnits="userSpaceOnUse" color-interpolation-filters="sRGB">
<feFlood flood-opacity="0" result="BackgroundImageFix"/>
<feColorMatrix in="SourceAlpha" type="matrix" values="0 0 0 0 0 0 0 0 0 0 0 0 0 0 0 0 0 0 127 0" result="hardAlpha"/>
<feOffset dy="4.91924"/>
<feGaussianBlur stdDeviation="12.2981"/>
<feComposite in2="hardAlpha" operator="out"/>
<feColorMatrix type="matrix" values="0 0 0 0 0 0 0 0 0 0 0 0 0 0 0 0 0 0 0.12 0"/>
<feBlend mode="normal" in2="BackgroundImageFix" result="effect1_dropShadow_1_232"/>
<feBlend mode="normal" in="SourceGraphic" in2="effect1_dropShadow_1_232" result="shape"/>
</filter>
<filter id="filter1_d_1_232" x="18.4489" y="15.9071" width="185.703" height="119.563" filterUnits="userSpaceOnUse" color-interpolation-filters="sRGB">
<feFlood flood-opacity="0" result="BackgroundImageFix"/>
<feColorMatrix in="SourceAlpha" type="matrix" values="0 0 0 0 0 0 0 0 0 0 0 0 0 0 0 0 0 0 127 0" result="hardAlpha"/>
<feOffset dy="2.49437"/>
<feGaussianBlur stdDeviation="6.23592"/>
<feComposite in2="hardAlpha" operator="out"/>
<feColorMatrix type="matrix" values="0 0 0 0 0 0 0 0 0 0 0 0 0 0 0 0 0 0 0.08 0"/>
<feBlend mode="normal" in2="BackgroundImageFix" result="effect1_dropShadow_1_232"/>
<feBlend mode="normal" in="SourceGraphic" in2="effect1_dropShadow_1_232" result="shape"/>
</filter>
<linearGradient id="paint0_linear_1_232" x1="111.448" y1="76.2809" x2="115.572" y2="111.392" gradientUnits="userSpaceOnUse">
<stop stop-color="#98CB56"/>
<stop offset="0.0001" stop-color="#98CB56" stop-opacity="0.46"/>
<stop offset="1" stop-color="#98CB56" stop-opacity="0.1"/>
</linearGradient>
<clipPath id="clip0_1_232">
<rect width="164.942" height="89.7815" rx="6.23592" transform="matrix(0.993173 -0.11665 0.116685 0.993169 24 38.2405)" fill="white"/>
</clipPath>
<clipPath id="clip1_1_232">
<rect width="152.78" height="77.3254" rx="3.74155" transform="matrix(0.993173 -0.11665 0.116685 0.993169 30.9208 43.7063)" fill="white"/>
</clipPath>
</defs>
</svg>
